HIERARCHY
ROOT Hips
{
	OFFSET 0.000000 0.000000 0.000000
	CHANNELS 6 Xposition Yposition Zposition Zrotation Yrotation Xrotation 
	JOINT LHipJoint
	{
		OFFSET 0.000000 0.000000 0.000000
		CHANNELS 3 Zrotation Yrotation Xrotation
		JOINT LeftUpLeg
		{
			OFFSET 1.363060 -1.794630 0.839290
			CHANNELS 3 Zrotation Yrotation Xrotation
			JOINT LeftLeg
			{
				OFFSET 2.448110 -6.726130 0.000000
				CHANNELS 3 Zrotation Yrotation Xrotation
				JOINT LeftFoot
				{
					OFFSET 2.562200 -7.039590 0.000000
					CHANNELS 3 Zrotation Yrotation Xrotation
					JOINT LeftToeBase
					{
						OFFSET 0.157640 -0.433110 2.322550
						CHANNELS 3 Zrotation Yrotation Xrotation
						End Site
						{
							OFFSET 0.000000 0.000000 0.000000
						}
					}
				}
			}
		}
	}
	JOINT RHipJoint
	{
		OFFSET 0.000000 0.000000 0.000000
		CHANNELS 3 Zrotation Yrotation Xrotation
		JOINT RightUpLeg
		{
			OFFSET -1.305520 -1.794630 0.839290
			CHANNELS 3 Zrotation Yrotation Xrotation
			JOINT RightLeg
			{
				OFFSET -2.542530 -6.985550 0.000000
				CHANNELS 3 Zrotation Yrotation Xrotation
				JOINT RightFoot
				{
					OFFSET -2.568260 -7.056230 0.000000
					CHANNELS 3 Zrotation Yrotation Xrotation
					JOINT RightToeBase
					{
						OFFSET -0.164730 -0.452590 2.363150
						CHANNELS 3 Zrotation Yrotation Xrotation
						End Site
						{
							OFFSET 0.000000 0.000000 0.000000
						}
					}
				}
			}
		}
	}
	JOINT LowerBack
	{
		OFFSET 0.000000 0.000000 0.000000
		CHANNELS 3 Zrotation Yrotation Xrotation
		JOINT Spine
		{
			OFFSET 0.028270 2.035590 -0.193380
			CHANNELS 3 Zrotation Yrotation Xrotation
			JOINT Spine1
			{
				OFFSET 0.056720 2.048850 -0.042750
				CHANNELS 3 Zrotation Yrotation Xrotation
				JOINT Neck
				{
					OFFSET 0.000000 0.000000 0.000000
					CHANNELS 3 Zrotation Yrotation Xrotation
					JOINT Neck1
					{
						OFFSET -0.054170 1.746240 0.172020
						CHANNELS 3 Zrotation Yrotation Xrotation
						JOINT Head
						{
							OFFSET 0.104070 1.761360 -0.123970
							CHANNELS 3 Zrotation Yrotation Xrotation
							End Site
							{
								OFFSET 0.000000 0.000000 0.000000
							}
						}
					}
				}
				JOINT LeftShoulder
				{
					OFFSET 0.000000 0.000000 0.000000
					CHANNELS 3 Zrotation Yrotation Xrotation
					JOINT LeftArm
					{
						OFFSET 3.362410 1.200890 -0.311210
						CHANNELS 3 Zrotation Yrotation Xrotation
						JOINT LeftForeArm
						{
							OFFSET 4.983000 -0.000000 -0.000000
							CHANNELS 3 Zrotation Yrotation Xrotation
							JOINT LeftHand
							{
								OFFSET 3.483560 -0.000000 -0.000000
								CHANNELS 3 Zrotation Yrotation Xrotation
								JOINT LeftFingerBase
								{
									OFFSET 0.000000 0.000000 0.000000
									CHANNELS 3 Zrotation Yrotation Xrotation
									JOINT LeftHandIndex1
									{
										OFFSET 0.715260 -0.000000 -0.000000
										CHANNELS 3 Zrotation Yrotation Xrotation
										End Site
										{
											OFFSET 0.000000 0.000000 0.000000
										}
									}
								}
								JOINT LThumb
								{
									OFFSET 0.000000 0.000000 0.000000
									CHANNELS 3 Zrotation Yrotation Xrotation
									End Site
									{
										OFFSET 0.000000 0.000000 0.000000
									}
								}
							}
						}
					}
				}
				JOINT RightShoulder
				{
					OFFSET 0.000000 0.000000 0.000000
					CHANNELS 3 Zrotation Yrotation Xrotation
					JOINT RightArm
					{
						OFFSET -3.136600 1.374050 -0.404650
						CHANNELS 3 Zrotation Yrotation Xrotation
						JOINT RightForeArm
						{
							OFFSET -5.241900 -0.000000 -0.000000
							CHANNELS 3 Zrotation Yrotation Xrotation
							JOINT RightHand
							{
								OFFSET -3.444170 -0.000000 -0.000000
								CHANNELS 3 Zrotation Yrotation Xrotation
								JOINT RightFingerBase
								{
									OFFSET 0.000000 0.000000 0.000000
									CHANNELS 3 Zrotation Yrotation Xrotation
									JOINT RightHandIndex1
									{
										OFFSET -0.622530 -0.000000 -0.000000
										CHANNELS 3 Zrotation Yrotation Xrotation
										End Site
										{
											OFFSET 0.000000 0.000000 0.000000
										}
									}
								}
								JOINT RThumb
								{
									OFFSET 0.000000 0.000000 0.000000
									CHANNELS 3 Zrotation Yrotation Xrotation
									End Site
									{
										OFFSET 0.000000 0.000000 0.000000
									}
								}
							}
						}
					}
				}
			}
		}
	}
}
MOTION
Frames: 9
Frame Time: 0.008333
2.525285 33.587556 -3.370242 177.622873 -4.194487 -169.715644 -2.167728 1.012689 1.081356 -18.076049 -5.690068 -24.325905 0.609340 8.663672 26.594992 -0.024994 1.252373 1.635894 0.584600 -4.895500 -13.610600 1.494694 -1.572054 1.090268 17.258638 9.442113 -25.711288 -2.053289 -10.298153 31.565827 -0.565194 1.198586 -4.663070 -1.359000 -7.378900 20.843000 -1.969997 1.052671 4.602158 0.303329 0.849158 -1.103442 2.076809 0.853040 -1.065264 -7.976822 4.475409 -13.914883 1.258918 3.801170 34.110040 2.057500 -1.722200 18.544300 -9.129902 -1.855849 -1.232967 -75.643548 -30.848517 50.136930 49.974853 -52.636209 -29.024934 -0.029820 -0.874050 32.148058 35.152863 22.935508 15.735300 -7.125000 0.000000 0.000000 6.239300 58.301000 2.035200 7.448324 2.190143 -0.489524 76.092625 30.972853 60.905653 -67.772649 54.021145 -43.019159 0.294845 -0.083251 51.769489 -16.611738 -1.864811 0.621000 7.125000 0.000000 0.000000 7.816600 -32.057600 2.496100 
2.543353 33.582206 -3.373876 177.678286 -4.315485 -169.721346 -2.171242 1.010635 1.076261 -17.951234 -5.752350 -24.325277 0.617544 8.680552 26.635554 -0.034894 1.301835 1.591740 0.579300 -4.873600 -13.548400 1.489589 -1.572143 1.092427 17.424814 9.297233 -25.729984 -2.050053 -10.292300 31.553808 -0.575859 1.239626 -4.727702 -1.369600 -7.406600 20.925700 -2.038722 1.103183 4.602659 0.479275 0.913362 -1.075136 2.407584 0.879556 -1.023719 -8.225030 4.427866 -13.806421 1.226239 3.804709 34.120310 2.080200 -1.769000 18.512900 -9.120091 -1.848636 -1.224262 -76.237516 -30.890650 50.228445 49.834636 -52.584841 -28.909708 -0.035125 -0.867046 32.243451 35.589551 22.853751 15.934700 -7.125000 0.000000 0.000000 6.780200 58.318400 2.215500 7.460838 2.195427 -0.499606 75.570697 31.083155 60.897431 -67.806880 54.010465 -43.047851 0.318700 -0.056740 51.807207 -16.563708 -2.727022 0.889800 7.125000 0.000000 0.000000 7.951700 -32.984900 2.360400 
2.562127 33.576352 -3.377207 177.773727 -4.446122 -169.742993 -2.170544 1.013976 1.076767 -17.783636 -5.858133 -24.314376 0.625848 8.696688 26.672233 -0.059138 1.416741 1.462258 0.565300 -4.815600 -13.383300 1.490248 -1.571604 1.098343 17.621939 9.209491 -25.754445 -2.053394 -10.292732 31.569047 -0.584861 1.269207 -4.821009 -1.362000 -7.386700 20.866300 -1.764861 1.012226 4.805940 0.509237 0.806014 -1.116477 2.306258 0.829243 -1.180042 -8.405057 4.531716 -13.860286 1.345758 3.981827 34.229271 2.198500 -1.736700 18.581500 -9.125302 -1.845739 -1.236395 -76.170085 -30.811393 49.942543 49.759783 -52.549923 -28.847142 -0.041491 -0.859312 32.187184 36.041601 22.967021 16.264300 -7.125000 0.000000 0.000000 7.319500 58.565200 2.436300 7.457908 2.204505 -0.496424 75.626749 31.118729 61.316889 -67.783197 54.003503 -43.003746 0.343173 -0.044855 51.904475 -16.731195 -3.474082 1.135400 7.125000 0.000000 0.000000 7.896300 -33.791800 2.188200 
2.580397 33.569488 -3.384879 177.789739 -4.516352 -169.845765 -2.175774 1.025161 1.081830 -17.723036 -5.929164 -24.187324 0.637897 8.711712 26.722961 -0.091452 1.564745 1.214005 0.573300 -4.848800 -13.477900 1.494000 -1.579549 1.105434 17.730264 9.132674 -25.660218 -2.062054 -10.300984 31.608276 -0.594964 1.294680 -4.940623 -1.360900 -7.383900 20.857700 -1.799521 1.087246 4.793778 0.570309 0.904619 -1.086006 2.431322 0.874106 -1.145126 -8.487461 4.498626 -13.485004 1.379816 3.883057 34.187323 2.210000 -1.785000 18.444500 -9.128166 -1.835789 -1.228927 -76.346390 -30.797107 50.128150 49.822547 -52.577740 -28.900396 -0.039656 -0.859986 32.049929 36.099323 22.779860 16.184100 -7.125000 0.000000 0.000000 7.412400 58.367000 2.432100 7.455947 2.212833 -0.502493 75.360236 30.985833 61.207601 -67.904952 54.024769 -43.112792 0.366181 -0.037484 52.025696 -16.971033 -4.042776 1.336100 7.125000 0.000000 0.000000 7.762000 -34.414900 2.032100 
2.600484 33.560404 -3.390026 177.817074 -4.642877 -169.876892 -2.172695 1.033139 1.080606 -17.618618 -6.096068 -24.095978 0.645608 8.721310 26.754368 -0.114509 1.670091 1.031670 0.593600 -4.932400 -13.715800 1.500874 -1.580242 1.106961 17.841183 9.113297 -25.646233 -2.075690 -10.318589 31.671950 -0.601790 1.284868 -5.141588 -1.369200 -7.405500 20.922400 -1.569794 1.038978 4.698405 0.512540 0.855079 -1.012135 2.210446 0.841337 -0.964523 -8.606880 4.528433 -13.287142 1.566939 3.912182 34.105227 2.336400 -1.759100 18.312400 -9.134709 -1.822699 -1.228117 -76.159406 -30.944991 50.006481 49.839520 -52.582029 -28.920962 -0.035721 -0.863481 31.937684 35.960814 22.323972 15.826800 -7.125000 0.000000 0.000000 7.297700 57.808800 2.296100 7.441328 2.217877 -0.483235 75.446370 31.129425 61.310831 -68.162549 54.084262 -43.360051 0.336867 -0.051225 52.126361 -16.732490 -3.193996 1.047800 7.125000 0.000000 0.000000 7.863200 -33.493800 2.236100 
2.619460 33.551117 -3.392752 177.850531 -4.716041 -169.869465 -2.174629 1.032966 1.076916 -17.519524 -6.191062 -24.077495 0.647301 8.725231 26.759051 -0.134918 1.764738 0.929349 0.623400 -5.052800 -14.059100 1.494746 -1.576780 1.100133 17.945945 9.117877 -25.706729 -2.096238 -10.346667 31.767183 -0.620636 1.348555 -5.285351 -1.364500 -7.393500 20.886400 -1.562348 1.051957 4.698599 0.610681 0.872781 -0.960943 2.370253 0.841626 -0.874135 -8.868400 4.513056 -13.334364 1.625924 3.980649 34.124928 2.423500 -1.767700 18.323400 -9.123966 -1.817127 -1.221187 -76.503334 -31.186903 50.001611 49.649583 -52.506941 -28.760003 -0.039867 -0.861450 31.942426 36.003389 22.398469 15.898400 -7.125000 0.000000 0.000000 7.344800 57.905900 2.328200 7.445010 2.222880 -0.487103 75.304101 31.222657 61.440288 -68.334795 54.143053 -43.570151 0.211861 -0.104796 52.328382 -15.728909 0.190970 -0.023900 7.125000 0.000000 0.000000 8.346100 -29.840600 3.116400 
2.636923 33.543547 -3.393256 177.791657 -4.800540 -169.878557 -2.174459 1.034677 1.073884 -17.527697 -6.304168 -24.028384 0.646679 8.720806 26.749802 -0.160186 1.875473 0.773384 0.616700 -5.025800 -13.982100 1.488540 -1.570931 1.098973 17.958428 8.941042 -25.823222 -2.116318 -10.380866 31.866119 -0.656764 1.530228 -5.252976 -1.380800 -7.435600 21.012500 -1.539755 1.074025 4.789993 0.587772 0.903047 -0.939086 2.314663 0.854982 -0.884601 -8.846974 4.494570 -13.426846 1.673768 3.944910 34.194958 2.437100 -1.774800 18.397800 -9.123504 -1.814718 -1.221953 -76.554389 -31.204864 49.977596 49.655518 -52.510676 -28.772597 -0.034156 -0.868117 31.933872 35.673726 21.914414 15.417600 -7.125000 0.000000 0.000000 7.003700 57.267000 2.111400 7.445572 2.224410 -0.467464 75.198209 31.626340 61.640073 -68.281467 54.106152 -43.500420 0.250395 -0.063281 52.262688 -15.614106 -1.243974 0.398700 7.125000 0.000000 0.000000 8.582500 -31.372000 2.888300 
2.656606 33.534260 -3.395376 177.656002 -4.834997 -169.873502 -2.174858 1.036762 1.074570 -17.619108 -6.364243 -23.986262 0.644722 8.713159 26.737860 -0.170093 1.919880 0.608459 0.612700 -5.009700 -13.936300 1.484687 -1.566759 1.097423 17.879945 8.857378 -25.906735 -2.131571 -10.408559 31.940830 -0.679027 1.635694 -5.246315 -1.381000 -7.436000 21.013800 -1.619618 1.096916 4.870847 0.525353 0.929342 -0.965692 2.253149 0.871390 -0.972139 -8.739286 4.518062 -13.398184 1.723331 3.903732 34.284186 2.431000 -1.778300 18.451100 -9.128750 -1.813522 -1.230618 -76.415451 -31.086701 49.918659 49.963999 -52.629470 -29.017027 -0.039257 -0.864485 31.827818 35.864943 23.246099 16.335000 -7.125000 0.000000 0.000000 7.068300 58.844900 2.399600 7.441047 2.226874 -0.444683 75.100012 32.049951 61.944484 -68.272617 54.084898 -43.472109 0.264466 -0.051921 52.057548 -15.673629 -1.683686 0.530300 7.125000 0.000000 0.000000 8.581600 -31.843200 2.789800 
2.674775 33.528103 -3.401937 177.599178 -4.885288 -169.893943 -2.181043 1.043570 1.077494 -17.613205 -6.468312 -23.873638 0.639611 8.698866 26.703973 -0.192597 2.019418 0.457110 0.561000 -4.797300 -13.331300 1.483471 -1.568638 1.098491 17.892489 8.784535 -25.912674 -2.145521 -10.429796 32.006970 -0.706310 1.755510 -5.304623 -1.402700 -7.491700 21.180700 -1.686445 1.147705 4.847081 0.555828 0.993561 -0.949720 2.344351 0.900205 -0.938255 -8.804278 4.499979 -13.329102 1.758635 3.864765 34.342308 2.449600 -1.807200 18.465900 -9.123632 -1.805076 -1.221386 -76.538014 -31.132224 49.971364 50.384376 -52.805727 -29.401524 -0.002061 -0.908727 31.626559 33.492465 21.478877 13.987100 -7.125000 0.000000 0.000000 4.506500 56.246600 1.244800 7.441715 2.228236 -0.441796 74.926799 32.217018 61.947484 -68.271309 54.075540 -43.466080 0.270120 -0.053057 52.119385 -15.817449 -1.795998 0.568900 7.125000 0.000000 0.000000 8.475700 -31.966600 2.729200 
